<?xml version="1.0" encoding="UTF-8" standalone="no"?>
<svg
   xmlns:dc="http://purl.org/dc/elements/1.1/"
   xmlns:cc="http://creativecommons.org/ns#"
   xmlns:rdf="http://www.w3.org/1999/02/22-rdf-syntax-ns#"
   xmlns:svg="http://www.w3.org/2000/svg"
   xmlns="http://www.w3.org/2000/svg"
   xmlns:sodipodi="http://sodipodi.sourceforge.net/DTD/sodipodi-0.dtd"
   xmlns:inkscape="http://www.inkscape.org/namespaces/inkscape"
   width="149.23152mm"
   height="103.78368mm"
   viewBox="0 0 149.23152 103.78368"
   version="1.1"
   id="map_of_canada"
   inkscape:version="1.0.1 (3bc2e813f5, 2020-09-07)"
   sodipodi:docname="mapofcanada.svg">
  <defs
     id="defs90" />
  <sodipodi:namedview
     id="base"
     pagecolor="#ffffff"
     bordercolor="#666666"
     borderopacity="1.0"
     inkscape:pageopacity="0.0"
     inkscape:pageshadow="2"
     inkscape:zoom="0.98994949"
     inkscape:cx="242.78182"
     inkscape:cy="319.89192"
     inkscape:document-units="mm"
     inkscape:current-layer="layer1"
     inkscape:document-rotation="0"
     showgrid="false"
     fit-margin-top="0"
     fit-margin-left="0"
     fit-margin-right="0"
     fit-margin-bottom="0"
     inkscape:window-width="1267"
     inkscape:window-height="1036"
     inkscape:window-x="183"
     inkscape:window-y="0"
     inkscape:window-maximized="0" />
  <metadata
     id="metadata93">
    <rdf:RDF>
      <cc:Work
         rdf:about="">
        <dc:format>image/svg+xml</dc:format>
        <dc:type
           rdf:resource="http://purl.org/dc/dcmitype/StillImage" />
        <dc:title></dc:title>
      </cc:Work>
    </rdf:RDF>
  </metadata>
  <g
     inkscape:label="Layer 1"
     inkscape:groupmode="layer"
     id="layer1">
    <g
       id="g173"
       transform="matrix(0.26458333,0,0,0.26458333,6.2710433,3.293656)">
      <g
         id="g7728"
         inkscape:label="canada"
         transform="matrix(1.25,0,0,-1.25,-23.701973,379.80521)">
        <g
           id="g7730"
           transform="scale(0.24)">
          <path
             d="m 1604.87,282.016 v 3.121 l -3.11,9.367 v 9.367 h 6.22 v -9.367 h 21.81 l 6.23,3.121 6.22,6.246 6.23,6.242 h 6.23 l 3.12,-3.121 v -3.121 l -3.12,-9.367 -3.11,-6.246 6.23,-3.121 v -3.121 h -24.92 l -9.34,-3.121 -9.35,3.121 z"
             style="fill:none;stroke:#231f20;stroke-width:2.08333;stroke-linecap:square;stroke-linejoin:miter;stroke-miterlimit:10;stroke-dasharray:none;stroke-opacity:1"
             id="path7732" />
          <path
             d="m 72.668,1031.28 3.1172,12.49 v 15.61 H 47.7539 v 9.36 H 44.6406 L 300.008,1306 l 15.574,-18.73 12.453,-3.12 3.113,-6.24 12.461,-15.61 3.114,-6.25 -3.114,-3.12 -3.117,-6.24 -6.226,-6.24 -6.231,-6.25 -9.344,-15.61 -12.457,-6.24 -3.113,-9.37 3.113,-6.24 3.118,-3.12 9.339,-6.24 h 3.118 v -6.25 l -3.118,-3.12 v -12.49 l -3.109,-6.25 -9.348,-3.11 h -3.113 l -3.113,-6.25 v -6.24 h 12.457 l -3.113,-9.37 -3.118,-6.25 -6.226,-6.24 h -3.113 l -6.231,-3.12 h -3.113 l -3.113,-6.24 -3.114,-6.25 v 0 l 3.114,-3.12 v 0 l -3.114,-18.73 h 3.114 l 3.113,-3.12 6.23,-6.25 v -6.24 h 3.114 v -9.36 l -6.231,-15.61 v -6.25 h -9.34 l -3.117,-9.36 v -6.25 l 3.117,-6.24 v -6.24 l -6.23,-9.37 h -3.114 l -3.113,-6.247 v -15.61 h 9.34 v -9.367 l 3.117,-21.852 h 3.114 l -3.114,-6.242 -3.117,-9.367 v -12.488 h 9.344 l 3.113,-3.121 3.117,-6.243 h 9.34 l 6.231,-6.246 h 6.23 v -6.242 l -3.117,-9.367 v -6.242 l -6.231,-3.125 -3.113,-12.488 -49.828,28.101 -62.285,40.582 -62.281,43.707 z"
             style="fill:none;stroke:#231f20;stroke-width:2.08333;stroke-linecap:square;stroke-linejoin:miter;stroke-miterlimit:10;stroke-dasharray:none;stroke-opacity:1"
             id="path7734" />
          <path
             d="m 16.6133,737.816 3.1133,-9.367 3.1132,-6.242 -3.1132,-6.246 L 16.6133,712.84 13.5,706.598 16.6133,694.109 13.5,690.988 H 7.26953 v 3.121 l -6.22656,12.489 v 21.851 l 6.22656,3.121 3.11327,12.489 v 15.613 l 3.1172,6.242 6.2266,9.363 h 3.1132 l 3.1172,-6.242 3.1133,-3.121 v -6.242 h 9.3438 l 3.1132,-6.246 -3.1132,-3.121 -6.2305,-3.121 -3.1133,-3.125 -6.2305,-6.243 z"
             style="fill:none;stroke:#231f20;stroke-width:2.08333;stroke-linecap:square;stroke-linejoin:miter;stroke-miterlimit:10;stroke-dasharray:none;stroke-opacity:1"
             id="path7736" />
          <path
             d="m 94.4688,466.207 v 9.367 l 6.2302,9.367 -6.2302,18.731 -3.1133,6.246 -6.2305,9.367 v 15.606 l -6.2266,21.855 -6.2304,6.242 -3.1133,3.121 -12.457,12.489 -3.1133,15.609 -6.2305,9.367 -6.2266,6.246 h -12.457 l -3.1133,-6.246 3.1133,-9.367 6.2266,-6.242 3.1172,-3.121 -6.2305,-6.246 v -9.368 l 3.1133,-3.121 6.2304,-3.121 h 6.2266 v -21.855 l 6.2305,-9.363 v -6.247 l 3.1133,-3.121 3.1171,-3.117 v -9.367 l 3.1133,-6.246 h 6.2266 l 3.1133,-9.363 3.1172,-6.246 v -21.856 h 3.1132 l 12.4571,-6.242 z"
             style="fill:none;stroke:#231f20;stroke-width:2.08333;stroke-linecap:square;stroke-linejoin:miter;stroke-miterlimit:10;stroke-dasharray:none;stroke-opacity:1"
             id="path7738" />
          <path
             d="m 321.809,375.672 -40.485,15.613 -52.941,21.852 -49.832,24.972 -40.485,21.856 -21.796,15.609 v 15.61 l 6.226,3.125 -6.226,3.121 v 6.242 h -9.344 v 3.125 l -12.4572,18.726 v 9.368 l 6.2302,6.242 v 15.613 h -6.2302 l -3.1133,-9.367 -6.2305,3.121 v 6.246 l -6.2266,9.363 -3.1132,6.246 -6.2305,6.243 -9.3399,15.609 -3.1171,9.367 -3.1133,6.246 v 6.239 l 3.1133,3.125 h 12.457 v 6.242 l 3.1133,12.488 3.1172,3.121 h 15.5703 v 12.488 l -6.2305,3.125 -9.3398,-3.125 -3.1172,9.368 -3.1133,6.242 v 9.367 l 3.1133,6.242 3.1172,6.246 v 6.242 l 3.1132,3.122 6.2266,6.246 6.2305,6.242 v 3.121 l -6.2305,6.246 -6.2266,-9.367 H 72.668 v 15.609 l 3.1172,9.367 v 12.489 l -3.1172,9.367 v 6.242 h 6.2304 l 6.2266,3.121 6.2305,6.242 3.1133,6.246 12.4572,6.243 v 40.586 l -6.227,6.242 h -6.2302 l -3.1133,9.367 3.1133,6.246 6.2302,6.242 6.227,9.364 v 21.855 l 9.344,15.609 v 37.465 l -6.231,15.61 v 6.242 l 6.231,6.242 -6.231,9.367 -3.113,6.246 H 91.3555 l -12.4571,-6.246 h -9.3437 l -12.457,-6.242 -3.1133,6.242 3.1133,6.246 3.1171,9.364 3.1133,12.487 6.2266,9.37 3.1133,15.61 56.059,-53.077 62.281,-43.707 62.285,-40.582 49.828,-28.101 34.258,-21.852 34.258,-15.609 -109,-209.168 v -21.852 l 6.23,-12.488 9.34,-12.489 v -9.367 l -6.227,-6.242 v -9.367 l 3.114,-3.125 9.344,-3.121 3.113,-9.363 v -18.735 l 3.113,-6.238 9.344,-3.125 3.113,-6.242 3.113,-3.121 v -28.102 l 3.118,-9.363 6.23,-3.125 3.109,-3.121 3.118,-6.243 3.113,-9.367 v -6.246 l -3.113,-6.242 -6.227,-3.121 v -6.242 l -3.117,-6.242 3.117,-6.247 h 3.109 v -18.73 z"
             style="fill:none;stroke:#231f20;stroke-width:2.08333;stroke-linecap:square;stroke-linejoin:miter;stroke-miterlimit:10;stroke-dasharray:none;stroke-opacity:1"
             id="path7740" />
          <path
             d="m 371.637,828.352 -109,-209.168 v -21.852 l 6.23,-12.488 9.34,-12.489 v -9.367 l -6.227,-6.242 v -9.367 l 3.114,-3.125 9.344,-3.121 3.113,-9.363 v -18.735 l 3.113,-6.238 9.344,-3.125 3.113,-6.242 3.113,-3.121 v -28.102 l 3.118,-9.363 6.23,-3.125 3.109,-3.121 3.118,-6.243 3.113,-9.367 v -6.246 l -3.113,-6.242 -6.227,-3.121 v -6.242 l -3.117,-6.242 3.117,-6.247 h 3.109 v -18.73 l 3.118,-6.246 15.57,-6.242 62.285,-18.735 21.801,-6.242 124.566,415.219 -68.511,21.851 -52.942,21.856 z"
             style="fill:none;stroke:#231f20;stroke-width:2.08333;stroke-linecap:square;stroke-linejoin:miter;stroke-miterlimit:10;stroke-dasharray:none;stroke-opacity:1"
             id="path7742" />
          <path
             d="m 546.031,759.672 -124.566,-415.219 46.711,-12.488 68.515,-18.731 74.743,-15.609 21.796,-3.121 68.512,421.457 -52.941,12.488 -49.828,15.61 z"
             style="fill:none;stroke:#231f20;stroke-width:2.08333;stroke-linecap:square;stroke-linejoin:miter;stroke-miterlimit:10;stroke-dasharray:none;stroke-opacity:1"
             id="path7744" />
          <path
             d="m 701.742,715.961 -68.512,-421.457 52.942,-9.367 77.859,-9.364 24.91,-3.125 h 3.118 l -3.118,9.368 3.118,6.242 12.457,128.004 34.257,28.093 115.223,121.754 -9.34,6.246 -12.457,6.243 -12.457,3.121 -6.23,-3.121 -15.571,-6.243 -24.914,-6.246 -12.457,-3.121 -9.343,-3.121 v 3.121 l 3.113,3.121 6.23,3.121 h 9.344 l 9.344,9.368 3.113,3.121 -3.113,12.488 -3.117,15.613 v 12.489 l -3.114,15.605 -3.113,9.367 h -18.687 l -6.227,6.242 -3.117,3.125 -3.11,-3.125 -3.117,3.125 -3.113,6.243 3.113,9.363 3.117,12.488 3.11,6.246 v 6.242 l -37.367,3.122 -49.828,6.246 z"
             style="fill:none;stroke:#231f20;stroke-width:2.08333;stroke-linecap:square;stroke-linejoin:miter;stroke-miterlimit:10;stroke-dasharray:none;stroke-opacity:1"
             id="path7746" />
          <path
             d="m 1181.34,360.063 -6.23,3.121 h -6.23 l -6.23,-3.121 -6.23,3.121 v 6.246 l -3.11,12.488 -6.23,9.367 h -9.34 l -3.12,9.363 -3.11,9.368 -6.23,3.121 -9.34,6.242 -3.12,9.363 3.12,12.488 -3.12,6.247 -3.11,9.367 -3.12,12.488 -3.11,12.488 3.11,12.489 3.12,12.488 v 3.121 h -9.34 l -12.46,-3.121 -15.57,3.121 H 1063 l -9.35,-6.246 h -3.11 l -12.46,3.125 -3.11,6.238 -3.11,9.367 -9.35,3.121 -18.68,3.122 -12.463,12.488 h -3.113 l -3.113,15.613 -3.114,6.242 -9.343,3.121 H 953.996 L 838.773,444.355 804.516,416.262 792.059,288.258 l 6.226,-3.121 3.113,-15.61 3.118,-3.121 18.683,-6.246 18.684,-6.242 15.574,-9.367 12.457,-6.242 6.227,-9.368 h 15.574 l 12.457,9.368 6.226,3.121 24.915,-12.489 h 6.226 l 6.231,6.243 3.117,3.125 12.453,3.121 3.113,6.242 3.117,9.367 3.114,6.246 9.343,3.121 12.457,-6.246 18.686,-3.121 9.34,-6.242 6.23,-9.367 3.12,-9.367 6.22,-3.122 12.46,-6.246 3.11,-3.117 3.12,-6.242 6.23,-3.125 v -28.098 l 3.11,-12.488 3.11,-3.121 12.46,-3.121 3.12,-3.121 6.23,-3.125 15.56,6.246 12.46,-3.121 9.34,-3.125 15.58,3.125 9.34,-3.125 3.11,-3.121 6.23,-3.121 6.23,3.121 h 9.34 l 6.23,-3.121 v -3.125 l 3.12,-9.364 3.11,-12.488 9.34,-9.363 v -12.489 l -9.34,-3.121 -6.23,3.121 -3.11,6.247 -9.34,6.242 -12.46,9.363 v -3.121 l 3.11,-3.125 3.12,-6.238 v -9.368 l -6.23,-12.4879 -3.12,-12.4883 3.12,-15.6093 -3.12,-9.3672 -9.34,-3.1211 -3.11,-9.3672 -6.23,-15.6094 3.11,-6.2383 -3.11,-6.246 h -12.46 V 4.16406 l 3.11,-3.12109 h 3.12 l 9.34,3.12109 15.57,9.36724 6.23,9.3671 9.35,9.3594 h 18.68 l 9.34,3.125 9.34,9.3633 h 6.23 l 9.35,3.125 6.22,3.1211 3.12,3.1211 v 6.2461 h -24.92 v 3.1211 l 3.12,9.3672 12.46,9.3632 12.45,6.2461 12.46,3.1211 12.45,-3.1211 15.58,3.1211 9.34,6.2461 9.34,3.1208 9.35,15.61 12.45,18.73 15.57,12.485 9.35,6.246 15.57,12.488 h -3.12 l -12.45,3.121 h -9.35 l -12.45,-6.242 -6.23,-3.121 h -28.03 l -37.37,15.609 h -12.46 l -18.68,15.609 -12.46,9.368 -3.11,9.363 -15.57,143.609 z"
             style="fill:none;stroke:#231f20;stroke-width:2.08333;stroke-linecap:square;stroke-linejoin:miter;stroke-miterlimit:10;stroke-dasharray:none;stroke-opacity:1"
             id="path7748" />
          <path
             d="m 1701.41,313.234 v 28.098 h -12.45 v -12.488 l -3.12,-12.485 -6.22,-6.246 v -9.367 l 3.11,-9.363 6.23,-6.246 12.45,3.121 h 3.12 l 6.23,6.246 6.22,6.242 v 18.731 l -12.45,-6.243 z"
             style="fill:none;stroke:#231f20;stroke-width:2.08333;stroke-linecap:square;stroke-linejoin:miter;stroke-miterlimit:10;stroke-dasharray:none;stroke-opacity:1"
             id="path7750" />
          <path
             d="m 1607.98,257.039 v -6.242 l 3.12,-3.125 h 6.23 l 9.34,3.125 3.12,3.121 3.11,-6.246 -3.11,-6.242 -9.34,-3.121 3.11,-6.246 -3.11,-3.122 -9.35,3.122 -9.34,-3.122 -3.12,-6.246 -6.22,-12.484 -9.35,-9.363 -6.23,-6.246 -3.11,-9.368 3.11,-15.609 3.12,-3.121 h 12.46 l 6.22,-6.242 h 3.12 l 6.22,3.121 v 6.242 l 6.23,6.246 3.12,6.242 6.23,12.489 v 9.367 l 6.23,9.367 h 12.45 l 3.12,9.359 3.11,6.246 12.46,3.122 9.34,9.367 12.46,15.609 12.45,9.367 6.23,6.242 v 3.125 l -6.23,6.243 h -9.34 l -9.34,-6.243 -15.57,-3.125 h -12.46 l -9.34,-6.242 h -6.23 l -3.11,3.121 h -6.23 l -6.23,-3.121 v -3.121 h -6.23 z"
             style="fill:none;stroke:#231f20;stroke-width:2.08333;stroke-linecap:square;stroke-linejoin:miter;stroke-miterlimit:10;stroke-dasharray:none;stroke-opacity:1"
             id="path7752" />
          <path
             d="m 1763.7,503.672 v -15.609 l 9.34,3.121 6.23,-6.243 6.23,-3.121 15.57,9.364 6.23,12.488 6.23,3.125 h 9.34 l 3.11,-3.125 -3.11,-15.609 v -9.368 l 3.11,-6.242 h 6.23 l 3.11,6.242 6.23,9.368 3.12,9.367 6.23,-3.121 v -21.856 l -6.23,-3.121 v -12.488 l 9.34,-3.125 v 15.613 l 3.12,3.121 3.11,-3.121 v -15.613 l 3.11,-9.364 6.23,9.364 h 6.23 l 3.12,-3.121 -3.12,-12.489 v -18.73 l -6.23,-6.242 h -3.11 l -3.12,6.242 -3.11,-3.117 -6.23,-3.125 h -6.22 l -3.12,9.363 3.12,9.367 v 9.363 l -3.12,3.125 -3.12,3.122 v -6.247 l -6.23,-9.363 -3.11,-9.367 -6.23,-6.238 v -9.367 l -3.11,-9.368 -3.12,-6.242 h -12.45 v 6.242 l 6.23,9.368 6.22,12.484 v 9.363 h -6.22 l -6.23,-6.242 -3.12,-9.363 h -3.11 l -6.23,3.125 h -3.11 l -3.12,-6.246 -9.34,-3.121 -31.14,-12.489 -9.34,-3.121 -12.46,-12.488 -9.35,-3.125 h -6.22 l -6.23,3.125 6.23,12.488 6.22,15.61 v 3.121 l 9.35,3.121 -6.23,3.125 -3.12,3.117 -6.22,-6.242 h -6.23 l -3.12,3.125 v 6.238 h 3.12 l 6.23,9.367 6.22,6.242 3.12,9.368 -3.12,6.242 v 18.734 l -6.22,18.731 6.22,15.613 -6.22,12.488 6.22,15.606 v 12.488 l 15.58,12.488 6.23,3.121 h 3.11 V 550.5 l -9.34,-9.367 v -12.488 l 6.23,-9.36 v -34.344 l 3.11,-3.121 6.23,3.121 v 9.368 l 9.34,9.363 z"
             style="fill:none;stroke:#231f20;stroke-width:2.08333;stroke-linecap:square;stroke-linejoin:miter;stroke-miterlimit:10;stroke-dasharray:none;stroke-opacity:1"
             id="path7754" />
          <path
             d="m 1701.41,541.133 h 9.35 v 3.121 l 6.22,12.492 9.35,9.363 v 12.489 l -9.35,9.367 -6.22,9.367 -6.23,18.727 -3.12,3.125 -6.23,3.125 h -15.56 l -6.23,3.117 -12.46,6.242 h -12.46 l -3.11,-6.242 -6.23,-9.367 -3.11,-15.606 -9.35,-6.246 -3.11,-6.242 -3.11,-9.367 -3.12,-9.368 h -9.35 v 9.368 l 3.12,15.609 9.35,9.367 9.34,12.485 6.23,15.609 6.22,3.125 6.23,6.242 v 6.246 h -18.68 l -3.12,6.242 h -3.11 l -3.11,-6.242 -9.35,-9.367 -12.46,9.367 -6.22,-6.246 -12.46,6.246 -9.34,6.242 -6.23,3.125 h -15.57 l -6.23,3.122 -6.23,9.363 -3.11,6.246 v 15.609 l -6.23,9.364 -6.23,6.246 h -9.34 v 0 l -3.12,6.242 -3.11,9.367 -18.68,6.242 -12.47,9.367 -9.34,15.61 -6.23,6.246 -15.57,6.242 -6.23,9.363 -6.22,6.246 -9.35,3.122 3.12,-18.731 6.23,-12.488 12.45,-9.367 15.57,-21.852 -3.11,-15.609 h 18.68 l 6.23,-21.856 9.35,-12.488 -9.35,-15.606 28.03,-31.222 -3.11,-9.367 15.57,-12.485 -12.46,-24.976 -18.68,6.246 -9.35,-6.246 -24.91,6.246 -9.34,9.363 9.34,-31.219 -21.8,15.61 v -15.61 l 6.23,-12.488 6.23,-18.73 9.34,-12.485 v -12.488 l 6.23,-18.734 18.68,18.734 V 481.82 l 21.8,-12.488 15.57,18.731 15.58,-21.856 9.34,15.613 -9.34,21.852 v 15.613 l 9.34,-6.25 v -6.238 l 12.45,-15.613 140.14,65.562 z"
             style="fill:none;stroke:#231f20;stroke-width:2.08333;stroke-linecap:square;stroke-linejoin:miter;stroke-miterlimit:10;stroke-dasharray:none;stroke-opacity:1"
             id="path7756" />
          <path
             d="m 1470.96,275.773 6.23,-9.367 h 3.11 l 12.46,3.121 3.12,6.246 3.11,3.122 h 6.23 l 3.11,-3.122 V 260.16 l 9.34,-31.219 3.12,-6.246 h 12.46 l 3.11,-3.117 v -9.367 l 9.34,-3.121 v -3.121 h 6.23 v 6.242 l 9.34,3.125 9.35,3.121 9.34,12.484 12.46,6.243 6.22,6.246 3.12,12.488 v 6.242 l 6.22,-3.121 v 0 l 3.12,6.246 6.23,3.121 v 0 l -3.12,3.121 6.24,6.246 h -6.24 l -12.45,-3.125 -12.46,12.489 v 12.488 l -3.11,3.121 h -12.46 v 6.246 l 3.11,9.367 -3.11,3.118 -3.11,3.121 h -6.23 l -3.12,-6.239 h -6.23 l -6.22,3.118 h -15.57 l -9.35,-3.118 h -3.11 l -3.12,-3.125 -6.22,-3.121 h -9.35 l -6.22,3.121 -3.12,-3.121 -3.11,-3.121 -3.11,-6.246 v -12.488 l -3.12,-6.242 -6.23,-3.121 z"
             style="fill:none;stroke:#231f20;stroke-width:2.08333;stroke-linecap:square;stroke-linejoin:miter;stroke-miterlimit:10;stroke-dasharray:none;stroke-opacity:1"
             id="path7758" />
          <path
             d="m 1470.96,275.773 6.23,3.122 6.23,3.121 3.12,6.242 v 12.488 l 3.11,6.246 3.11,3.121 3.12,3.121 6.22,-3.121 h 9.35 l 6.22,3.121 3.12,3.125 h 3.11 l 9.35,3.118 h 6.23 l 3.11,9.367 3.11,6.242 6.23,3.121 h 9.34 l 3.12,3.125 3.11,6.242 12.46,6.246 3.11,6.243 v 6.246 l -6.23,3.121 -3.11,6.242 -3.11,3.125 h -9.35 l -15.57,-3.125 -12.45,-6.242 -15.58,-9.367 -12.45,-9.368 -15.57,-18.73 -12.46,-15.606 -15.57,-18.734 -6.23,-21.852 -6.23,-15.613 -6.23,-15.609 -9.34,-12.488 -12.46,-6.243 -18.68,-9.363 -9.34,-12.488 -9.35,-12.489 -3.11,-15.609 -6.23,-9.367 -15.57,-9.367 -9.35,-3.121 -3.11,-6.246 37.37,12.492 18.69,3.121 18.68,3.121 6.23,3.121 3.12,6.246 3.11,6.242 h 12.46 l 9.34,21.856 v 6.242 l -6.23,9.367 v 9.363 l 6.23,12.489 6.23,18.73 z"
             style="fill:none;stroke:#231f20;stroke-width:2.08333;stroke-linecap:square;stroke-linejoin:miter;stroke-miterlimit:10;stroke-dasharray:none;stroke-opacity:1"
             id="path7760" />
          <path
             d="m 1564.39,406.895 9.34,6.242 15.57,3.125 h 15.57 l 15.58,-3.125 9.34,3.125 h 6.23 l 3.11,-6.246 v -6.243 l -9.34,-3.125 h -6.23 l -6.23,-3.121 -15.57,3.121 h -12.46 l -6.23,6.247 z"
             style="fill:none;stroke:#231f20;stroke-width:2.08333;stroke-linecap:square;stroke-linejoin:miter;stroke-miterlimit:10;stroke-dasharray:none;stroke-opacity:1"
             id="path7762" />
          <path
             d="m 1165.77,812.742 h 24.91 l 9.34,-15.609 15.57,6.246 12.46,15.605 h 15.57 l 12.46,-28.093 21.8,6.242 3.11,-15.61 12.46,-6.246 6.23,6.246 12.46,-6.246 12.45,6.246 h 9.34 l -12.45,-15.609 9.34,-18.73 -3.12,-18.735 6.23,-12.488 15.57,-9.363 3.12,-6.246 12.46,6.246 9.34,-6.246 -3.12,-24.973 12.46,9.363 v 21.856 h 15.58 l 6.22,21.851 18.69,-21.851 -9.35,31.218 6.23,12.489 -6.23,15.609 3.12,21.852 3.11,-3.121 3.12,-18.731 6.23,-12.488 12.45,-9.367 3.12,-15.61 12.45,-6.242 -3.11,-15.609 h 18.68 l 6.23,-21.856 9.35,-12.488 -9.35,-15.606 18.69,-21.855 9.34,-9.367 -3.11,-9.367 15.57,-12.485 -12.46,-24.976 -18.68,6.246 -9.35,-6.246 -24.91,6.246 -9.34,9.363 9.34,-31.219 -21.8,15.61 v -15.61 l 6.23,-12.488 6.23,-18.73 9.34,-12.485 v -12.488 l 6.23,-18.734 18.68,18.734 V 481.82 l 21.8,-12.488 15.57,18.731 15.58,-21.856 9.34,15.613 -9.34,21.852 v 15.613 l 9.34,-6.25 v -6.238 l 12.45,-15.613 140.14,65.562 6.23,-15.613 -6.23,-15.61 -21.79,-6.238 v -24.976 l -15.57,-18.735 v -9.367 l -24.92,-18.73 -31.14,-12.489 -62.28,-18.726 -34.26,-9.367 -9.34,-15.61 3.11,-24.976 -21.8,-9.368 -21.8,-37.464 -12.46,-43.704 -6.23,-12.488 -9.34,-21.855 -31.14,-15.61 -15.57,-21.851 -6.23,-15.61 -6.23,-12.488 -9.34,-9.367 h -3.12 l -12.45,3.121 h -9.35 l -12.45,-6.242 -6.23,-3.121 h -28.03 l -37.37,15.609 h -12.46 l -18.68,15.609 -12.46,9.368 -3.11,9.363 -15.57,143.609 v 0 l -6.23,6.243 6.23,15.609 15.57,3.125 -9.35,18.73 3.12,15.61 -3.12,15.605 -6.22,9.367 -3.12,9.368 6.23,18.73 -15.57,9.367 -3.11,18.735 15.57,12.488 18.68,18.726 21.8,37.465 15.57,3.121 -12.46,15.61 -9.34,18.734 -18.68,31.215 -24.92,15.613 -6.22,6.242 3.11,18.731 12.46,18.734 v 21.852 l -9.35,9.367 -3.11,15.609 h -9.34 v 12.489 l 6.23,15.609 -18.69,9.363 v 15.614 z"
             style="fill:none;stroke:#231f20;stroke-width:2.08333;stroke-linecap:square;stroke-linejoin:miter;stroke-miterlimit:10;stroke-dasharray:none;stroke-opacity:1"
             id="path7764" />
          <path
             d="m 1053.65,1231.08 v -12.49 l 3.12,-3.12 6.23,-3.12 3.11,-3.12 3.11,-6.25 v -6.24 h 9.35 24.91 l 3.11,6.24 v 6.25 l -3.11,3.12 v 3.12 l -6.23,3.12 h -6.22 v 6.25 l -3.12,6.24 v 3.12 h -12.46 l -9.34,-3.12 z"
             style="fill:none;stroke:#231f20;stroke-width:2.08333;stroke-linecap:square;stroke-linejoin:miter;stroke-miterlimit:10;stroke-dasharray:none;stroke-opacity:1"
             id="path7766" />
          <path
             d="m 798.285,1081.23 3.113,9.36 v 6.25 h -3.113 l -6.226,6.24 -6.231,3.12 -3.113,12.49 v 9.36 l -3.113,6.25 h -12.457 l -3.114,9.37 v 15.6 l 3.114,21.86 3.113,15.61 -3.113,15.61 3.113,3.12 v 3.12 l -15.57,15.61 h -3.114 l -6.23,-3.12 -3.114,-6.24 v -49.95 l -6.23,-3.13 -3.113,3.13 -6.227,3.12 v 9.37 l 3.113,15.6 3.114,9.37 -3.114,12.49 h -12.457 v 0 l -9.343,-9.37 -3.114,-3.12 h -12.457 l -3.113,3.12 3.113,3.12 h 6.227 v 6.25 l -3.113,9.36 h -24.914 v 6.25 h 6.23 l 3.113,6.24 3.114,3.12 v 6.24 l -3.114,6.25 h -9.343 l -6.227,-6.25 h -3.117 l -9.34,-3.12 -3.117,3.12 H 633.23 l -3.113,-3.12 -3.113,-6.24 -6.231,-21.85 h -15.57 v -9.37 l 6.231,-3.12 9.339,-3.12 9.344,-6.25 9.344,-6.24 v -3.12 h -15.57 l -9.344,3.12 H 602.09 l -6.231,-9.36 v 0 l 3.114,-6.25 h 6.23 l 3.113,-3.12 18.688,-6.25 12.457,-6.24 18.684,-15.61 6.23,-6.24 v -3.13 l -3.117,-6.24 h -3.113 l -9.344,6.24 -15.571,3.13 -15.57,6.24 -12.457,6.25 h -6.23 l -6.227,-6.25 v -15.61 l 9.344,-6.25 12.457,-9.36 18.683,-12.49 v 0 l -3.113,-9.36 v -15.61 l 3.113,-6.25 h 24.915 l 9.343,-6.24 h 18.684 l 6.23,6.24 h 21.797 l 3.117,6.25 3.114,3.12 h 9.343 v -9.37 h 3.114 l 6.23,-6.24 24.914,-21.85 h 9.34 l 9.344,6.24 h 3.113 l 3.113,12.49 -3.113,3.12 h -15.57 v 6.24 l 3.113,6.25 6.231,3.12 h 9.339 l 6.231,-3.12 z"
             style="fill:none;stroke:#231f20;stroke-width:2.08333;stroke-linecap:square;stroke-linejoin:miter;stroke-miterlimit:10;stroke-dasharray:none;stroke-opacity:1"
             id="path7768" />
          <path
             d="m 760.914,1240.45 v 0 l 6.231,6.24 9.343,3.12 6.227,-3.12 3.113,-6.24 3.113,-9.37 v -12.49 l -3.113,-3.12 -3.113,-3.12 h -3.113 l -3.114,3.12 v 9.37 l -3.117,9.36 h -9.34 z"
             style="fill:none;stroke:#231f20;stroke-width:2.08333;stroke-linecap:square;stroke-linejoin:miter;stroke-miterlimit:10;stroke-dasharray:none;stroke-opacity:1"
             id="path7770" />
          <path
             d="m 838.773,1134.3 -3.117,6.24 -6.226,15.62 -6.231,9.36 -9.344,9.37 -6.226,6.24 h -3.113 v 15.61 l 3.113,6.24 h 3.113 l 3.113,-6.24 6.231,-3.12 3.113,-6.24 h 6.231 l 3.113,9.36 3.113,12.49 -3.113,9.36 h -3.113 v 12.49 l 3.113,3.12 h 6.23 l 6.227,-3.12 3.113,-6.24 h 6.227 l 6.23,6.24 h 3.114 l 3.117,-6.24 v -9.37 l -3.117,-6.24 -6.227,-6.25 -3.117,-6.24 v 0 l 3.117,-3.12 6.227,-6.24 h 3.117 l 3.113,-6.25 v -6.24 l -3.113,-9.37 -6.231,-9.36 -6.23,-12.49 -6.227,-3.13 z"
             style="fill:none;stroke:#231f20;stroke-width:2.08333;stroke-linecap:square;stroke-linejoin:miter;stroke-miterlimit:10;stroke-dasharray:none;stroke-opacity:1"
             id="path7772" />
          <path
             d="m 823.199,1043.77 -3.113,3.12 v 6.24 h 3.113 l 6.231,6.25 3.113,6.24 v 3.12 l 3.113,6.24 3.117,6.25 h 3.11 l 3.117,-6.25 h 3.113 v -6.24 l 3.114,-3.12 6.23,-12.49 3.113,-6.24 6.231,-3.12 v -12.49 l -3.117,-3.12 -3.114,-6.25 h -9.343 l -3.114,6.25 -6.23,3.12 -9.34,6.24 z"
             style="fill:none;stroke:#231f20;stroke-width:2.08333;stroke-linecap:square;stroke-linejoin:miter;stroke-miterlimit:10;stroke-dasharray:none;stroke-opacity:1"
             id="path7774" />
          <path
             d="m 891.715,1159.27 -3.117,12.49 -3.114,9.37 v 6.25 l 3.114,9.36 v 6.24 l -3.114,12.49 v 9.37 l 6.231,9.36 6.226,6.25 h 6.231 l 3.113,-6.25 h 24.914 v -15.61 l -6.23,-6.24 v -24.97 l -3.114,-6.25 h -12.457 l -3.113,6.25 h -6.23 v -6.25 l 3.117,-6.24 v -15.62 z"
             style="fill:none;stroke:#231f20;stroke-width:2.08333;stroke-linecap:square;stroke-linejoin:miter;stroke-miterlimit:10;stroke-dasharray:none;stroke-opacity:1"
             id="path7776" />
          <path
             d="m 1156.42,1021.91 -3.11,6.25 h -6.23 l -6.23,-6.25 h -6.23 v -21.85 l 3.12,-9.369 6.23,-6.242 h 9.34 l 3.11,6.242 v 9.369 l 3.12,15.61 z"
             style="fill:none;stroke:#231f20;stroke-width:2.08333;stroke-linecap:square;stroke-linejoin:miter;stroke-miterlimit:10;stroke-dasharray:none;stroke-opacity:1"
             id="path7778" />
          <path
             d="m 1025.63,925.133 h -9.35 l -6.23,-15.61 -6.22,-31.222 3.11,-6.242 6.23,-6.246 v -9.364 l -3.12,-6.242 -6.22,-6.246 -3.12,-3.121 v -12.488 h 28.03 l 3.12,-15.61 h 3.11 l 6.23,6.242 3.11,9.368 3.12,12.488 3.11,3.121 h 9.34 v 0 l 3.12,6.246 v 6.242 h 6.22 l 3.12,-6.242 6.23,-6.246 3.11,-3.121 6.23,-6.246 h 15.57 l 3.11,6.246 v 15.609 l -3.11,3.121 h -3.11 l -9.34,-3.121 h -3.12 l -3.11,3.121 -3.12,6.243 3.12,12.488 h -3.12 l -3.11,3.125 h -12.46 l -12.46,6.242 -9.34,6.246 v 9.363 h -12.45 l -6.23,6.246 -3.12,6.243 z"
             style="fill:none;stroke:#231f20;stroke-width:2.08333;stroke-linecap:square;stroke-linejoin:miter;stroke-miterlimit:10;stroke-dasharray:none;stroke-opacity:1"
             id="path7780" />
          <path
             d="m 1087.91,812.742 h -6.23 l -6.23,-6.242 -3.11,-3.121 -6.23,3.121 h -6.23 v 0 l -6.23,-9.367 -3.11,-9.367 v -6.243 h 18.68 l 3.12,3.122 3.11,3.121 6.23,3.125 6.23,6.242 3.12,9.367 z"
             style="fill:none;stroke:#231f20;stroke-width:2.08333;stroke-linecap:square;stroke-linejoin:miter;stroke-miterlimit:10;stroke-dasharray:none;stroke-opacity:1"
             id="path7782" />
          <path
             d="m 1128.39,765.914 h 6.23 l 3.12,15.609 v 6.243 l -3.12,3.125 -6.23,6.242 -3.11,-6.242 -6.23,-6.246 v -9.368 h 3.11 l 3.12,-9.363 z"
             style="fill:none;stroke:#231f20;stroke-width:2.08333;stroke-linecap:square;stroke-linejoin:miter;stroke-miterlimit:10;stroke-dasharray:none;stroke-opacity:1"
             id="path7784" />
          <path
             d="m 346.723,1256.05 -3.114,-3.12 -3.117,-6.24 -6.226,-6.24 -6.231,-6.25 -9.344,-15.61 -12.457,-6.24 -3.113,-9.37 3.113,-6.24 3.118,-3.12 9.339,-6.24 h 3.118 v -6.25 l -3.118,-3.12 v -12.49 l -3.109,-6.25 -9.348,-3.11 h -3.113 l -3.113,-6.25 v -6.24 h 12.457 l -3.113,-9.37 -3.118,-6.25 -6.226,-6.24 h -9.344 l -3.113,-3.12 -3.113,-6.24 -3.114,-6.25 v 0 l 3.114,-3.12 v 0 l -3.114,-18.73 h 3.114 l 3.113,-3.12 6.23,-6.25 v -6.24 h 3.114 v -9.36 l -6.231,-15.61 v -6.25 h -9.34 l -3.117,-9.36 v -6.25 l 3.117,-6.24 v -6.24 l -6.23,-9.37 h -3.114 l -3.113,-6.247 v -15.61 h 9.34 v -9.367 l 3.117,-21.852 h 3.114 l -3.114,-6.242 -3.117,-9.367 v -12.488 h 9.344 l 3.113,-3.121 3.117,-6.243 h 9.34 l 6.231,-6.246 h 6.23 v -6.242 l -3.117,-9.367 v -6.242 l -6.231,-3.125 -3.113,-12.488 34.258,-21.852 34.258,-15.609 52.941,-24.973 52.942,-21.856 68.511,-21.851 52.942,-15.613 49.828,-15.61 52.941,-12.488 52.946,-9.363 49.828,-6.246 37.367,-3.122 6.23,9.368 v 15.609 l 3.114,9.363 18.687,21.856 6.227,12.488 6.23,9.363 6.227,21.856 h -12.457 l -3.114,6.246 9.344,9.363 21.801,-9.363 12.453,3.121 v 12.484 l -6.227,9.368 -18.683,12.488 -46.715,9.367 -3.117,6.242 v 3.121 l 3.117,6.243 18.684,-6.243 37.371,-15.609 6.23,-9.367 12.457,6.246 18.684,-12.488 15.57,12.488 28.031,9.367 12.457,21.852 6.226,15.609 -34.257,6.246 -21.797,21.852 v 9.367 l 34.258,-15.61 12.453,-6.246 9.343,12.489 9.34,9.367 -3.11,6.242 -6.23,9.367 9.34,6.242 24.92,-15.609 6.23,3.121 -6.23,12.488 3.11,9.368 12.46,-15.61 15.57,6.242 6.23,9.368 6.23,12.484 3.11,9.367 -21.8,28.097 6.23,15.61 3.11,31.22 -37.36,21.85 -15.58,-15.6 3.11,-37.47 -15.56,-21.85 -9.346,-21.857 -18.687,15.61 6.23,34.347 -15.574,24.97 -15.566,-37.46 -6.231,28.1 -37.371,24.97 9.34,21.85 -18.684,53.08 -9.343,12.49 -3.114,-6.25 -21.8,-68.68 31.14,-28.1 -24.91,-43.7 -12.457,-40.594 -21.801,53.074 -24.914,-15.61 -28.027,-6.24 -49.828,31.22 -3.114,28.1 -49.828,-6.25 12.457,-21.85 -12.457,-46.831 -28.027,62.441 -59.172,12.49 -3.113,21.85 h 15.57 l -3.113,21.85 -28.031,9.37 -18.684,31.22 -18.684,12.49 -12.457,18.73 -21.8,3.12 3.113,18.73 -18.684,-9.36 -9.343,15.6 6.23,21.86 -6.23,9.36 -12.457,-9.36 -12.458,-6.25 -31.14,6.25 -21.801,15.61 21.801,-6.25 24.91,-3.12 6.23,3.12 -28.027,15.61 h -28.027 l -18.688,-3.12 -12.457,-12.49 -6.226,15.61 z"
             style="fill:none;stroke:#231f20;stroke-width:2.08333;stroke-linecap:square;stroke-linejoin:miter;stroke-miterlimit:10;stroke-dasharray:none;stroke-opacity:1"
             id="path7786" />
          <path
             d="m 997.598,1231.08 3.112,-12.49 -3.112,-15.61 -12.457,-15.6 -3.114,-12.49 3.114,-9.37 15.569,-15.61 3.12,-21.86 6.22,-6.24 h 9.34 l 6.24,18.73 -9.35,9.37 -3.11,9.36 3.11,6.25 v 9.37 l -6.23,6.24 h -3.11 l 3.11,15.61 15.58,18.73 12.45,15.61 h 3.12 l 6.23,-6.24 v -12.49 l 6.22,-9.37 3.12,-15.6 -3.12,-28.11 3.12,-3.11 15.57,15.6 6.23,3.13 9.34,-15.62 h 6.23 l 3.11,15.62 -9.34,6.24 v 6.25 l 12.46,6.24 15.57,-6.24 3.11,-15.62 12.46,9.37 3.11,-9.37 v -12.49 l 12.46,-3.11 6.23,-12.49 9.34,6.24 -3.11,15.61 h 9.34 l 12.46,-15.61 -6.23,-15.61 15.57,-12.49 9.34,6.24 3.12,15.62 h 18.68 l 3.12,-15.62 -12.46,-15.6 3.11,-6.25 15.57,12.49 v 9.36 l 6.23,6.25 h 12.46 l -9.34,-15.61 -9.35,-12.49 h 12.46 l 12.46,-3.12 9.34,3.12 3.12,-9.36 -6.24,-6.25 h -12.45 l -12.46,-6.24 12.46,-15.61 h 15.57 l 15.57,-15.61 h 12.46 l 12.46,6.25 h 6.23 l 6.22,-6.25 -3.11,-9.36 6.23,-6.25 h 12.45 l 6.23,6.25 3.12,-6.25 3.11,-6.24 15.57,6.24 h 9.34 l 6.23,-6.24 -3.11,-9.37 h -9.34 v -6.24 l 3.11,-9.37 h 3.11 v -12.487 h -9.34 v -9.364 l 9.34,-6.246 v -15.609 h -9.34 l -6.23,6.242 h -6.23 l -6.22,3.125 -9.35,21.852 -6.23,6.247 -18.68,-6.247 h -18.68 l 9.34,-9.364 v -6.246 h -15.57 l 9.34,-9.367 9.34,-12.484 h 9.35 l 9.34,-15.61 12.45,6.242 12.46,-6.242 3.11,-15.609 21.8,-6.246 -3.11,-9.364 v -15.609 l 12.46,-15.613 3.11,-6.242 h -24.91 l -34.26,21.855 -3.11,-6.246 h -12.46 l -3.11,-9.367 28.02,-12.488 9.35,-9.364 h 21.8 l 9.34,-6.242 -9.34,-21.855 -40.49,12.488 h -18.68 l -12.46,3.121 -21.8,-3.121 -15.57,15.609 3.12,15.61 h -12.47 l -24.91,9.367 -9.34,21.851 h -12.46 l 3.12,-21.851 -15.57,6.242 -9.35,-9.367 -24.91,-6.242 -18.69,15.609 9.35,28.098 h 31.14 l 24.91,9.367 v 9.363 l -9.34,12.488 6.23,15.61 9.34,15.609 h 21.8 l 12.46,-9.367 h 12.45 l 9.34,9.367 -6.22,15.61 h -24.92 v -9.364 h -12.45 l -12.46,9.364 3.11,15.617 -3.11,6.24 -40.48,43.71 -31.15,9.36 -9.34,12.49 -12.46,15.61 -15.57,9.36 h -9.34 l 9.34,-21.85 -3.11,-3.12 -21.8,9.36 h -12.46 l -15.57,-15.61 -37.37,15.61 h -18.686 l -21.801,15.61 -3.113,15.61 h 6.23 l 12.457,-3.12 3.114,9.36 H 969.57 l -3.117,12.49 -12.457,3.13 -3.109,15.6 3.109,21.86 9.344,15.61 21.801,28.1 z"
             style="fill:none;stroke:#231f20;stroke-width:2.08333;stroke-linecap:square;stroke-linejoin:miter;stroke-miterlimit:10;stroke-dasharray:none;stroke-opacity:1"
             id="path7788" />
        </g>
      </g>
      <text class="slot" data-value="Ontario" x="260" y="290">___</text>
      <text class="slot" data-value="Quebec" x="370" y="260">___</text>
      <text class="slot" data-value="Alberta" x="85" y="210">___</text>
    </g>
  </g>
</svg>
